<svg height="1854" width="720" xmlns="http://www.w3.org/2000/svg">
<rect height="1854" fill="#555" width="720"></rect>
<text fill="#7f7" font-family="Courier New" font-size="12" xml:space="preserve">
<tspan x="10" y="26">19 megabytes installed</tspan>
<tspan x="10" y="42"></tspan>
<tspan x="10" y="58">node_modules</tspan>
<tspan x="10" y="74">└─┬ get-image-colors@1.8.1 </tspan>
<tspan x="10" y="90">  ├── chroma-js@1.3.3 </tspan>
<tspan x="10" y="106">  ├─┬ get-pixels@3.3.0 </tspan>
<tspan x="10" y="122">  │ ├── data-uri-to-buffer@0.0.3 </tspan>
<tspan x="10" y="138">  │ ├── jpeg-js@0.1.2 </tspan>
<tspan x="10" y="154">  │ ├─┬ mime-types@2.1.15 </tspan>
<tspan x="10" y="170">  │ │ └── mime-db@1.27.0 </tspan>
<tspan x="10" y="186">  │ ├─┬ ndarray@1.0.18 </tspan>
<tspan x="10" y="202">  │ │ ├── iota-array@1.0.0 </tspan>
<tspan x="10" y="218">  │ │ └── is-buffer@1.1.5 </tspan>
<tspan x="10" y="234">  │ ├─┬ ndarray-pack@1.2.1 </tspan>
<tspan x="10" y="250">  │ │ └─┬ cwise-compiler@1.1.2 </tspan>
<tspan x="10" y="266">  │ │   └── uniq@1.0.1 </tspan>
<tspan x="10" y="282">  │ ├── node-bitmap@0.0.1 </tspan>
<tspan x="10" y="298">  │ ├── omggif@1.0.8 </tspan>
<tspan x="10" y="314">  │ ├── parse-data-uri@0.2.0 </tspan>
<tspan x="10" y="330">  │ ├── pngjs@2.3.1 </tspan>
<tspan x="10" y="346">  │ ├─┬ request@2.81.0 </tspan>
<tspan x="10" y="362">  │ │ ├── aws-sign2@0.6.0 </tspan>
<tspan x="10" y="378">  │ │ ├── aws4@1.6.0 </tspan>
<tspan x="10" y="394">  │ │ ├── caseless@0.12.0 </tspan>
<tspan x="10" y="410">  │ │ ├─┬ combined-stream@1.0.5 </tspan>
<tspan x="10" y="426">  │ │ │ └── delayed-stream@1.0.0 </tspan>
<tspan x="10" y="442">  │ │ ├── extend@3.0.0 </tspan>
<tspan x="10" y="458">  │ │ ├── forever-agent@0.6.1 </tspan>
<tspan x="10" y="474">  │ │ ├─┬ form-data@2.1.4 </tspan>
<tspan x="10" y="490">  │ │ │ └── asynckit@0.4.0 </tspan>
<tspan x="10" y="506">  │ │ ├─┬ har-validator@4.2.1 </tspan>
<tspan x="10" y="522">  │ │ │ ├─┬ ajv@4.11.7 </tspan>
<tspan x="10" y="538">  │ │ │ │ ├── co@4.6.0 </tspan>
<tspan x="10" y="554">  │ │ │ │ └─┬ json-stable-stringify@1.0.1 </tspan>
<tspan x="10" y="570">  │ │ │ │   └── jsonify@0.0.0 </tspan>
<tspan x="10" y="586">  │ │ │ └── har-schema@1.0.5 </tspan>
<tspan x="10" y="602">  │ │ ├─┬ hawk@3.1.3 </tspan>
<tspan x="10" y="618">  │ │ │ ├── boom@2.10.1 </tspan>
<tspan x="10" y="634">  │ │ │ ├── cryptiles@2.0.5 </tspan>
<tspan x="10" y="650">  │ │ │ ├── hoek@2.16.3 </tspan>
<tspan x="10" y="666">  │ │ │ └── sntp@1.0.9 </tspan>
<tspan x="10" y="682">  │ │ ├─┬ http-signature@1.1.1 </tspan>
<tspan x="10" y="698">  │ │ │ ├── assert-plus@0.2.0 </tspan>
<tspan x="10" y="714">  │ │ │ ├─┬ jsprim@1.4.0 </tspan>
<tspan x="10" y="730">  │ │ │ │ ├── assert-plus@1.0.0 </tspan>
<tspan x="10" y="746">  │ │ │ │ ├── extsprintf@1.0.2 </tspan>
<tspan x="10" y="762">  │ │ │ │ ├── json-schema@0.2.3 </tspan>
<tspan x="10" y="778">  │ │ │ │ └── verror@1.3.6 </tspan>
<tspan x="10" y="794">  │ │ │ └─┬ sshpk@1.13.0 </tspan>
<tspan x="10" y="810">  │ │ │   ├── asn1@0.2.3 </tspan>
<tspan x="10" y="826">  │ │ │   ├── assert-plus@1.0.0 </tspan>
<tspan x="10" y="842">  │ │ │   ├── bcrypt-pbkdf@1.0.1 </tspan>
<tspan x="10" y="858">  │ │ │   ├─┬ dashdash@1.14.1 </tspan>
<tspan x="10" y="874">  │ │ │   │ └── assert-plus@1.0.0 </tspan>
<tspan x="10" y="890">  │ │ │   ├── ecc-jsbn@0.1.1 </tspan>
<tspan x="10" y="906">  │ │ │   ├─┬ getpass@0.1.6 </tspan>
<tspan x="10" y="922">  │ │ │   │ └── assert-plus@1.0.0 </tspan>
<tspan x="10" y="938">  │ │ │   ├── jodid25519@1.0.2 </tspan>
<tspan x="10" y="954">  │ │ │   ├── jsbn@0.1.1 </tspan>
<tspan x="10" y="970">  │ │ │   └── tweetnacl@0.14.5 </tspan>
<tspan x="10" y="986">  │ │ ├── is-typedarray@1.0.0 </tspan>
<tspan x="10" y="1002">  │ │ ├── isstream@0.1.2 </tspan>
<tspan x="10" y="1018">  │ │ ├── json-stringify-safe@5.0.1 </tspan>
<tspan x="10" y="1034">  │ │ ├── oauth-sign@0.8.2 </tspan>
<tspan x="10" y="1050">  │ │ ├── performance-now@0.2.0 </tspan>
<tspan x="10" y="1066">  │ │ ├── qs@6.4.0 </tspan>
<tspan x="10" y="1082">  │ │ ├── safe-buffer@5.0.1 </tspan>
<tspan x="10" y="1098">  │ │ ├── stringstream@0.0.5 </tspan>
<tspan x="10" y="1114">  │ │ ├─┬ tough-cookie@2.3.2 </tspan>
<tspan x="10" y="1130">  │ │ │ └── punycode@1.4.1 </tspan>
<tspan x="10" y="1146">  │ │ ├── tunnel-agent@0.6.0 </tspan>
<tspan x="10" y="1162">  │ │ └── uuid@3.0.1 </tspan>
<tspan x="10" y="1178">  │ └── through@2.3.8 </tspan>
<tspan x="10" y="1194">  ├─┬ get-rgba-palette@2.0.1 </tspan>
<tspan x="10" y="1210">  │ └── quantize@1.0.2 </tspan>
<tspan x="10" y="1226">  ├─┬ get-svg-colors@1.3.0 </tspan>
<tspan x="10" y="1242">  │ ├─┬ cheerio@0.19.0 </tspan>
<tspan x="10" y="1258">  │ │ ├─┬ css-select@1.0.0 </tspan>
<tspan x="10" y="1274">  │ │ │ ├── boolbase@1.0.0 </tspan>
<tspan x="10" y="1290">  │ │ │ ├── css-what@1.0.0 </tspan>
<tspan x="10" y="1306">  │ │ │ ├── domutils@1.4.3 </tspan>
<tspan x="10" y="1322">  │ │ │ └── nth-check@1.0.1 </tspan>
<tspan x="10" y="1338">  │ │ ├─┬ dom-serializer@0.1.0 </tspan>
<tspan x="10" y="1354">  │ │ │ └── domelementtype@1.1.3 </tspan>
<tspan x="10" y="1370">  │ │ ├── entities@1.1.1 </tspan>
<tspan x="10" y="1386">  │ │ ├─┬ htmlparser2@3.8.3 </tspan>
<tspan x="10" y="1402">  │ │ │ ├── domelementtype@1.3.0 </tspan>
<tspan x="10" y="1418">  │ │ │ ├── domhandler@2.3.0 </tspan>
<tspan x="10" y="1434">  │ │ │ ├── domutils@1.5.1 </tspan>
<tspan x="10" y="1450">  │ │ │ ├── entities@1.0.0 </tspan>
<tspan x="10" y="1466">  │ │ │ └─┬ readable-stream@1.1.14 </tspan>
<tspan x="10" y="1482">  │ │ │   ├── core-util-is@1.0.2 </tspan>
<tspan x="10" y="1498">  │ │ │   ├── inherits@2.0.3 </tspan>
<tspan x="10" y="1514">  │ │ │   ├── isarray@0.0.1 </tspan>
<tspan x="10" y="1530">  │ │ │   └── string_decoder@0.10.31 </tspan>
<tspan x="10" y="1546">  │ │ └── lodash@3.10.1 </tspan>
<tspan x="10" y="1562">  │ ├── is-svg@1.1.1 </tspan>
<tspan x="10" y="1578">  │ ├── lodash.compact@3.0.1 </tspan>
<tspan x="10" y="1594">  │ └─┬ lodash.uniq@3.2.2 </tspan>
<tspan x="10" y="1610">  │   ├─┬ lodash._basecallback@3.3.1 </tspan>
<tspan x="10" y="1626">  │   │ ├─┬ lodash._baseisequal@3.0.7 </tspan>
<tspan x="10" y="1642">  │   │ │ ├── lodash.istypedarray@3.0.6 </tspan>
<tspan x="10" y="1658">  │   │ │ └─┬ lodash.keys@3.1.2 </tspan>
<tspan x="10" y="1674">  │   │ │   └── lodash.isarguments@3.1.0 </tspan>
<tspan x="10" y="1690">  │   │ ├── lodash._bindcallback@3.0.1 </tspan>
<tspan x="10" y="1706">  │   │ └── lodash.pairs@3.0.1 </tspan>
<tspan x="10" y="1722">  │   ├─┬ lodash._baseuniq@3.0.3 </tspan>
<tspan x="10" y="1738">  │   │ ├── lodash._baseindexof@3.1.0 </tspan>
<tspan x="10" y="1754">  │   │ ├── lodash._cacheindexof@3.0.2 </tspan>
<tspan x="10" y="1770">  │   │ └── lodash._createcache@3.1.2 </tspan>
<tspan x="10" y="1786">  │   ├── lodash._getnative@3.9.1 </tspan>
<tspan x="10" y="1802">  │   ├── lodash._isiterateecall@3.0.9 </tspan>
<tspan x="10" y="1818">  │   └── lodash.isarray@3.0.4 </tspan>
<tspan x="10" y="1834">  └── pify@2.3.0</tspan>
</text>
</svg>
